<svg xmlns="http://www.w3.org/2000/svg" xmlns:xlink="http://www.w3.org/1999/xlink" width="500" zoomAndPan="magnify" viewBox="0 0 375 374.999991" height="500" preserveAspectRatio="xMidYMid meet" version="1.0"><defs><g/></defs><g fill="#000000" fill-opacity="1"><g transform="translate(63.275043, 189.82156)"><g><path d="M 0.90625 -16.1875 C 0.90625 -20.863281 2.5 -24.820312 5.6875 -28.0625 C 8.875 -31.3125 12.710938 -32.9375 17.203125 -32.9375 C 21.734375 -32.9375 25.578125 -31.320312 28.734375 -28.09375 C 31.898438 -24.863281 33.484375 -20.894531 33.484375 -16.1875 C 33.484375 -11.457031 31.925781 -7.476562 28.8125 -4.25 C 25.707031 -1.019531 21.835938 0.59375 17.203125 0.59375 C 12.472656 0.59375 8.570312 -1.003906 5.5 -4.203125 C 2.4375 -7.410156 0.90625 -11.40625 0.90625 -16.1875 Z M 8.859375 -16.1875 C 8.859375 -14.488281 9.117188 -12.941406 9.640625 -11.546875 C 10.160156 -10.148438 11.070312 -8.96875 12.375 -8 C 13.6875 -7.03125 15.296875 -6.546875 17.203125 -6.546875 C 19.953125 -6.546875 22.023438 -7.484375 23.421875 -9.359375 C 24.816406 -11.242188 25.515625 -13.519531 25.515625 -16.1875 C 25.515625 -18.832031 24.800781 -21.097656 23.375 -22.984375 C 21.957031 -24.878906 19.898438 -25.828125 17.203125 -25.828125 C 14.546875 -25.828125 12.488281 -24.878906 11.03125 -22.984375 C 9.582031 -21.097656 8.859375 -18.832031 8.859375 -16.1875 Z M 8.859375 -16.1875 "/></g></g></g><g fill="#000000" fill-opacity="1"><g transform="translate(93.96661, 189.82156)"><g><path d="M 11.09375 -26.03125 L 19.046875 -32.9375 L 22.625 -28.421875 L 13.296875 -23.015625 Z M 3.71875 -17.59375 C 1.84375 -15.53125 0.90625 -13.007812 0.90625 -10.03125 C 0.90625 -7.050781 1.84375 -4.535156 3.71875 -2.484375 C 5.601562 -0.429688 8 0.59375 10.90625 0.59375 C 13.5625 0.59375 15.753906 -0.363281 17.484375 -2.28125 L 17.5625 -2.28125 L 17.5625 0 L 24.421875 0 L 24.421875 -20.109375 L 17.484375 -20.109375 L 17.484375 -18.1875 C 15.753906 -19.863281 13.5625 -20.703125 10.90625 -20.703125 C 8 -20.703125 5.601562 -19.664062 3.71875 -17.59375 Z M 9.5625 -6.640625 C 8.695312 -7.515625 8.265625 -8.644531 8.265625 -10.03125 C 8.265625 -11.414062 8.71875 -12.550781 9.625 -13.4375 C 10.53125 -14.332031 11.644531 -14.78125 12.96875 -14.78125 C 14.28125 -14.78125 15.382812 -14.332031 16.28125 -13.4375 C 17.1875 -12.550781 17.640625 -11.414062 17.640625 -10.03125 C 17.640625 -8.675781 17.203125 -7.550781 16.328125 -6.65625 C 15.453125 -5.769531 14.332031 -5.328125 12.96875 -5.328125 C 11.5625 -5.328125 10.425781 -5.765625 9.5625 -6.640625 Z M 9.5625 -6.640625 "/></g></g></g><g fill="#000000" fill-opacity="1"><g transform="translate(117.053522, 189.82156)"><g><path d="M 21.796875 -20.109375 L 11.84375 -5.296875 L 21.015625 -5.296875 L 21.015625 0 L 0.203125 0 L 10.15625 -14.8125 L 1.84375 -14.8125 L 1.84375 -20.109375 Z M 21.796875 -20.109375 "/></g></g></g><g fill="#000000" fill-opacity="1"><g transform="translate(135.358128, 189.82156)"><g><path d="M 3.71875 -2.484375 C 1.84375 -4.535156 0.90625 -7.050781 0.90625 -10.03125 C 0.90625 -13.007812 1.84375 -15.53125 3.71875 -17.59375 C 5.601562 -19.664062 8 -20.703125 10.90625 -20.703125 C 13.5625 -20.703125 15.753906 -19.863281 17.484375 -18.1875 L 17.484375 -20.109375 L 24.421875 -20.109375 L 24.421875 0 L 17.5625 0 L 17.5625 -2.28125 L 17.484375 -2.28125 C 15.753906 -0.363281 13.5625 0.59375 10.90625 0.59375 C 8 0.59375 5.601562 -0.429688 3.71875 -2.484375 Z M 9.625 -13.4375 C 8.71875 -12.550781 8.265625 -11.414062 8.265625 -10.03125 C 8.265625 -8.644531 8.695312 -7.515625 9.5625 -6.640625 C 10.425781 -5.765625 11.5625 -5.328125 12.96875 -5.328125 C 14.332031 -5.328125 15.453125 -5.769531 16.328125 -6.65625 C 17.203125 -7.550781 17.640625 -8.675781 17.640625 -10.03125 C 17.640625 -11.414062 17.1875 -12.550781 16.28125 -13.4375 C 15.382812 -14.332031 14.28125 -14.78125 12.96875 -14.78125 C 11.644531 -14.78125 10.53125 -14.332031 9.625 -13.4375 Z M 9.625 -13.4375 "/></g></g></g><g fill="#000000" fill-opacity="1"><g transform="translate(158.445037, 189.82156)"><g/></g></g><g fill="#000000" fill-opacity="1"><g transform="translate(165.46027, 189.82156)"><g><path d="M 21.796875 -20.109375 L 11.84375 -5.296875 L 21.015625 -5.296875 L 21.015625 0 L 0.203125 0 L 10.15625 -14.8125 L 1.84375 -14.8125 L 1.84375 -20.109375 Z M 21.796875 -20.109375 "/></g></g></g><g fill="#000000" fill-opacity="1"><g transform="translate(183.764876, 189.82156)"><g><path d="M 3.71875 -2.484375 C 1.84375 -4.535156 0.90625 -7.050781 0.90625 -10.03125 C 0.90625 -13.007812 1.84375 -15.53125 3.71875 -17.59375 C 5.601562 -19.664062 8 -20.703125 10.90625 -20.703125 C 13.5625 -20.703125 15.753906 -19.863281 17.484375 -18.1875 L 17.484375 -33.71875 L 24.421875 -33.71875 L 24.421875 0 L 17.5625 0 L 17.5625 -2.28125 L 17.484375 -2.28125 C 15.753906 -0.363281 13.5625 0.59375 10.90625 0.59375 C 8 0.59375 5.601562 -0.429688 3.71875 -2.484375 Z M 9.625 -13.4375 C 8.71875 -12.550781 8.265625 -11.414062 8.265625 -10.03125 C 8.265625 -8.644531 8.695312 -7.515625 9.5625 -6.640625 C 10.425781 -5.765625 11.5625 -5.328125 12.96875 -5.328125 C 14.332031 -5.328125 15.453125 -5.769531 16.328125 -6.65625 C 17.203125 -7.550781 17.640625 -8.675781 17.640625 -10.03125 C 17.640625 -11.414062 17.1875 -12.550781 16.28125 -13.4375 C 15.382812 -14.332031 14.28125 -14.78125 12.96875 -14.78125 C 11.644531 -14.78125 10.53125 -14.332031 9.625 -13.4375 Z M 9.625 -13.4375 "/></g></g></g><g fill="#000000" fill-opacity="1"><g transform="translate(206.851785, 189.82156)"><g><path d="M 2.359375 0 L 2.359375 -20.109375 L 9.296875 -20.109375 L 9.296875 -17.203125 L 9.375 -17.203125 C 9.425781 -17.304688 9.507812 -17.4375 9.625 -17.59375 C 9.738281 -17.757812 9.992188 -18.035156 10.390625 -18.421875 C 10.785156 -18.816406 11.203125 -19.171875 11.640625 -19.484375 C 12.085938 -19.796875 12.660156 -20.078125 13.359375 -20.328125 C 14.066406 -20.578125 14.789062 -20.703125 15.53125 -20.703125 C 16.28125 -20.703125 17.019531 -20.597656 17.75 -20.390625 C 18.488281 -20.179688 19.023438 -19.972656 19.359375 -19.765625 L 19.921875 -19.4375 L 17.015625 -13.5625 C 16.148438 -14.289062 14.945312 -14.65625 13.40625 -14.65625 C 12.570312 -14.65625 11.851562 -14.472656 11.25 -14.109375 C 10.644531 -13.742188 10.21875 -13.300781 9.96875 -12.78125 C 9.726562 -12.257812 9.554688 -11.816406 9.453125 -11.453125 C 9.347656 -11.085938 9.296875 -10.796875 9.296875 -10.578125 L 9.296875 0 Z M 2.359375 0 "/></g></g></g><g fill="#000000" fill-opacity="1"><g transform="translate(222.686836, 189.82156)"><g><path d="M 3.71875 -2.484375 C 1.84375 -4.535156 0.90625 -7.050781 0.90625 -10.03125 C 0.90625 -13.007812 1.84375 -15.53125 3.71875 -17.59375 C 5.601562 -19.664062 8 -20.703125 10.90625 -20.703125 C 13.5625 -20.703125 15.753906 -19.863281 17.484375 -18.1875 L 17.484375 -20.109375 L 24.421875 -20.109375 L 24.421875 0 L 17.5625 0 L 17.5625 -2.28125 L 17.484375 -2.28125 C 15.753906 -0.363281 13.5625 0.59375 10.90625 0.59375 C 8 0.59375 5.601562 -0.429688 3.71875 -2.484375 Z M 9.625 -13.4375 C 8.71875 -12.550781 8.265625 -11.414062 8.265625 -10.03125 C 8.265625 -8.644531 8.695312 -7.515625 9.5625 -6.640625 C 10.425781 -5.765625 11.5625 -5.328125 12.96875 -5.328125 C 14.332031 -5.328125 15.453125 -5.769531 16.328125 -6.65625 C 17.203125 -7.550781 17.640625 -8.675781 17.640625 -10.03125 C 17.640625 -11.414062 17.1875 -12.550781 16.28125 -13.4375 C 15.382812 -14.332031 14.28125 -14.78125 12.96875 -14.78125 C 11.644531 -14.78125 10.53125 -14.332031 9.625 -13.4375 Z M 9.625 -13.4375 "/></g></g></g><g fill="#000000" fill-opacity="1"><g transform="translate(245.773745, 189.82156)"><g><path d="M 7.453125 -20.109375 L 12.34375 -9.171875 L 17.25 -20.109375 L 25.484375 -20.109375 L 14.703125 0 L 10 0 L -0.78125 -20.109375 Z M 7.453125 -20.109375 "/></g></g></g><g fill="#000000" fill-opacity="1"><g transform="translate(266.783093, 189.82156)"><g><path d="M 3.015625 -31.3125 C 3.828125 -32.125 4.796875 -32.53125 5.921875 -32.53125 C 7.046875 -32.53125 8.007812 -32.125 8.8125 -31.3125 C 9.625 -30.507812 10.03125 -29.546875 10.03125 -28.421875 C 10.03125 -27.296875 9.625 -26.328125 8.8125 -25.515625 C 8.007812 -24.710938 7.046875 -24.3125 5.921875 -24.3125 C 4.796875 -24.3125 3.828125 -24.710938 3.015625 -25.515625 C 2.203125 -26.328125 1.796875 -27.296875 1.796875 -28.421875 C 1.796875 -29.546875 2.203125 -30.507812 3.015625 -31.3125 Z M 2.359375 -20.109375 L 2.359375 0 L 9.296875 0 L 9.296875 -20.109375 Z M 2.359375 -20.109375 "/></g></g></g><g fill="#000000" fill-opacity="1"><g transform="translate(274.935108, 189.82156)"><g><path d="M 3.71875 -2.484375 C 1.84375 -4.535156 0.90625 -7.050781 0.90625 -10.03125 C 0.90625 -13.007812 1.84375 -15.53125 3.71875 -17.59375 C 5.601562 -19.664062 8 -20.703125 10.90625 -20.703125 C 13.5625 -20.703125 15.753906 -19.863281 17.484375 -18.1875 L 17.484375 -20.109375 L 24.421875 -20.109375 L 24.421875 0 L 17.5625 0 L 17.5625 -2.28125 L 17.484375 -2.28125 C 15.753906 -0.363281 13.5625 0.59375 10.90625 0.59375 C 8 0.59375 5.601562 -0.429688 3.71875 -2.484375 Z M 9.625 -13.4375 C 8.71875 -12.550781 8.265625 -11.414062 8.265625 -10.03125 C 8.265625 -8.644531 8.695312 -7.515625 9.5625 -6.640625 C 10.425781 -5.765625 11.5625 -5.328125 12.96875 -5.328125 C 14.332031 -5.328125 15.453125 -5.769531 16.328125 -6.65625 C 17.203125 -7.550781 17.640625 -8.675781 17.640625 -10.03125 C 17.640625 -11.414062 17.1875 -12.550781 16.28125 -13.4375 C 15.382812 -14.332031 14.28125 -14.78125 12.96875 -14.78125 C 11.644531 -14.78125 10.53125 -14.332031 9.625 -13.4375 Z M 9.625 -13.4375 "/></g></g></g><g fill="#000000" fill-opacity="1"><g transform="translate(298.022028, 189.82156)"><g><path d="M 6.828125 -8.390625 C 8.078125 -8.390625 9.140625 -7.953125 10.015625 -7.078125 C 10.890625 -6.203125 11.328125 -5.132812 11.328125 -3.875 C 11.328125 -2.644531 10.890625 -1.59375 10.015625 -0.71875 C 9.140625 0.15625 8.078125 0.59375 6.828125 0.59375 C 5.597656 0.59375 4.546875 0.15625 3.671875 -0.71875 C 2.796875 -1.59375 2.359375 -2.644531 2.359375 -3.875 C 2.359375 -5.132812 2.796875 -6.203125 3.671875 -7.078125 C 4.546875 -7.953125 5.597656 -8.390625 6.828125 -8.390625 Z M 6.828125 -8.390625 "/></g></g></g><g fill="#000000" fill-opacity="1"><g transform="translate(73.681473, 212.619406)"><g><path d="M 5.84375 -2.703125 C 5.84375 -2.160156 5.722656 -1.675781 5.484375 -1.25 C 5.242188 -0.832031 4.914062 -0.5 4.5 -0.25 C 4.082031 -0.0078125 3.625 0.109375 3.125 0.109375 C 2.625 0.109375 2.164062 -0.0078125 1.75 -0.25 C 1.332031 -0.5 1.003906 -0.832031 0.765625 -1.25 C 0.523438 -1.675781 0.40625 -2.160156 0.40625 -2.703125 C 0.40625 -3.234375 0.523438 -3.71875 0.765625 -4.15625 C 1.003906 -4.59375 1.332031 -4.929688 1.75 -5.171875 C 2.164062 -5.410156 2.625 -5.53125 3.125 -5.53125 C 3.625 -5.53125 4.082031 -5.410156 4.5 -5.171875 C 4.914062 -4.929688 5.242188 -4.59375 5.484375 -4.15625 C 5.722656 -3.71875 5.84375 -3.234375 5.84375 -2.703125 Z M 4.875 -2.703125 C 4.875 -3.078125 4.796875 -3.410156 4.640625 -3.703125 C 4.484375 -3.992188 4.269531 -4.21875 4 -4.375 C 3.738281 -4.539062 3.445312 -4.625 3.125 -4.625 C 2.800781 -4.625 2.503906 -4.539062 2.234375 -4.375 C 1.972656 -4.21875 1.765625 -3.992188 1.609375 -3.703125 C 1.453125 -3.410156 1.375 -3.078125 1.375 -2.703125 C 1.375 -2.335938 1.453125 -2.007812 1.609375 -1.71875 C 1.765625 -1.4375 1.972656 -1.210938 2.234375 -1.046875 C 2.503906 -0.878906 2.800781 -0.796875 3.125 -0.796875 C 3.445312 -0.796875 3.738281 -0.878906 4 -1.046875 C 4.269531 -1.210938 4.484375 -1.4375 4.640625 -1.71875 C 4.796875 -2.007812 4.875 -2.335938 4.875 -2.703125 Z M 4.875 -2.703125 "/></g></g></g><g fill="#000000" fill-opacity="1"><g transform="translate(86.64396, 212.619406)"><g><path d="M 3.4375 -5.53125 C 3.90625 -5.53125 4.328125 -5.410156 4.703125 -5.171875 C 5.085938 -4.929688 5.390625 -4.597656 5.609375 -4.171875 C 5.828125 -3.742188 5.9375 -3.257812 5.9375 -2.71875 C 5.9375 -2.1875 5.828125 -1.703125 5.609375 -1.265625 C 5.390625 -0.835938 5.085938 -0.5 4.703125 -0.25 C 4.328125 -0.0078125 3.914062 0.109375 3.46875 0.109375 C 3.101562 0.109375 2.765625 0.03125 2.453125 -0.125 C 2.148438 -0.289062 1.90625 -0.488281 1.71875 -0.71875 L 1.71875 -0.421875 C 1.71875 -0.285156 1.671875 -0.164062 1.578125 -0.0625 C 1.484375 0.03125 1.363281 0.078125 1.21875 0.078125 C 1.082031 0.078125 0.96875 0.03125 0.875 -0.0625 C 0.78125 -0.15625 0.734375 -0.273438 0.734375 -0.421875 L 0.734375 -7.140625 C 0.734375 -7.285156 0.773438 -7.398438 0.859375 -7.484375 C 0.953125 -7.578125 1.070312 -7.625 1.21875 -7.625 C 1.363281 -7.625 1.484375 -7.578125 1.578125 -7.484375 C 1.671875 -7.390625 1.71875 -7.273438 1.71875 -7.140625 L 1.71875 -4.625 C 1.875 -4.863281 2.109375 -5.070312 2.421875 -5.25 C 2.742188 -5.4375 3.082031 -5.53125 3.4375 -5.53125 Z M 3.328125 -0.796875 C 3.648438 -0.796875 3.9375 -0.878906 4.1875 -1.046875 C 4.4375 -1.222656 4.628906 -1.457031 4.765625 -1.75 C 4.910156 -2.039062 4.984375 -2.363281 4.984375 -2.71875 C 4.984375 -3.082031 4.910156 -3.40625 4.765625 -3.6875 C 4.628906 -3.976562 4.4375 -4.207031 4.1875 -4.375 C 3.9375 -4.539062 3.648438 -4.625 3.328125 -4.625 C 3.003906 -4.625 2.710938 -4.539062 2.453125 -4.375 C 2.203125 -4.207031 2.003906 -3.976562 1.859375 -3.6875 C 1.722656 -3.40625 1.65625 -3.082031 1.65625 -2.71875 C 1.65625 -2.351562 1.722656 -2.023438 1.859375 -1.734375 C 2.003906 -1.453125 2.203125 -1.222656 2.453125 -1.046875 C 2.710938 -0.878906 3.003906 -0.796875 3.328125 -0.796875 Z M 3.328125 -0.796875 "/></g></g></g><g fill="#000000" fill-opacity="1"><g transform="translate(99.688856, 212.619406)"><g><path d="M 3.484375 -5.53125 C 4.722656 -5.53125 5.34375 -4.785156 5.34375 -3.296875 L 5.34375 -0.5 C 5.34375 -0.351562 5.296875 -0.234375 5.203125 -0.140625 C 5.109375 -0.046875 4.988281 0 4.84375 0 C 4.707031 0 4.59375 -0.046875 4.5 -0.140625 C 4.40625 -0.234375 4.359375 -0.351562 4.359375 -0.5 L 4.359375 -3.296875 C 4.359375 -3.691406 4.265625 -4.007812 4.078125 -4.25 C 3.898438 -4.5 3.597656 -4.625 3.171875 -4.625 C 2.898438 -4.625 2.648438 -4.5625 2.421875 -4.4375 C 2.203125 -4.320312 2.03125 -4.160156 1.90625 -3.953125 C 1.78125 -3.753906 1.71875 -3.535156 1.71875 -3.296875 L 1.71875 -0.5 C 1.71875 -0.351562 1.671875 -0.234375 1.578125 -0.140625 C 1.484375 -0.046875 1.363281 0 1.21875 0 C 1.070312 0 0.953125 -0.046875 0.859375 -0.140625 C 0.773438 -0.234375 0.734375 -0.351562 0.734375 -0.5 L 0.734375 -4.90625 C 0.734375 -5.039062 0.78125 -5.15625 0.875 -5.25 C 0.96875 -5.351562 1.082031 -5.40625 1.21875 -5.40625 C 1.363281 -5.40625 1.484375 -5.351562 1.578125 -5.25 C 1.671875 -5.15625 1.71875 -5.039062 1.71875 -4.90625 L 1.71875 -4.546875 C 1.894531 -4.816406 2.140625 -5.046875 2.453125 -5.234375 C 2.773438 -5.429688 3.117188 -5.53125 3.484375 -5.53125 Z M 3.484375 -5.53125 "/></g></g></g><g fill="#000000" fill-opacity="1"><g transform="translate(112.476226, 212.619406)"><g><path d="M 5.84375 -2.703125 C 5.84375 -2.160156 5.722656 -1.675781 5.484375 -1.25 C 5.242188 -0.832031 4.914062 -0.5 4.5 -0.25 C 4.082031 -0.0078125 3.625 0.109375 3.125 0.109375 C 2.625 0.109375 2.164062 -0.0078125 1.75 -0.25 C 1.332031 -0.5 1.003906 -0.832031 0.765625 -1.25 C 0.523438 -1.675781 0.40625 -2.160156 0.40625 -2.703125 C 0.40625 -3.234375 0.523438 -3.71875 0.765625 -4.15625 C 1.003906 -4.59375 1.332031 -4.929688 1.75 -5.171875 C 2.164062 -5.410156 2.625 -5.53125 3.125 -5.53125 C 3.625 -5.53125 4.082031 -5.410156 4.5 -5.171875 C 4.914062 -4.929688 5.242188 -4.59375 5.484375 -4.15625 C 5.722656 -3.71875 5.84375 -3.234375 5.84375 -2.703125 Z M 4.875 -2.703125 C 4.875 -3.078125 4.796875 -3.410156 4.640625 -3.703125 C 4.484375 -3.992188 4.269531 -4.21875 4 -4.375 C 3.738281 -4.539062 3.445312 -4.625 3.125 -4.625 C 2.800781 -4.625 2.503906 -4.539062 2.234375 -4.375 C 1.972656 -4.21875 1.765625 -3.992188 1.609375 -3.703125 C 1.453125 -3.410156 1.375 -3.078125 1.375 -2.703125 C 1.375 -2.335938 1.453125 -2.007812 1.609375 -1.71875 C 1.765625 -1.4375 1.972656 -1.210938 2.234375 -1.046875 C 2.503906 -0.878906 2.800781 -0.796875 3.125 -0.796875 C 3.445312 -0.796875 3.738281 -0.878906 4 -1.046875 C 4.269531 -1.210938 4.484375 -1.4375 4.640625 -1.71875 C 4.796875 -2.007812 4.875 -2.335938 4.875 -2.703125 Z M 4.875 -2.703125 "/></g></g></g><g fill="#000000" fill-opacity="1"><g transform="translate(125.438714, 212.619406)"><g><path d="M 4.859375 -5.453125 C 4.984375 -5.453125 5.09375 -5.410156 5.1875 -5.328125 C 5.28125 -5.242188 5.328125 -5.140625 5.328125 -5.015625 C 5.328125 -4.953125 5.300781 -4.867188 5.25 -4.765625 L 3.296875 -0.3125 C 3.253906 -0.21875 3.191406 -0.144531 3.109375 -0.09375 C 3.035156 -0.0390625 2.953125 -0.0078125 2.859375 0 C 2.753906 0.0078125 2.65625 -0.0078125 2.5625 -0.0625 C 2.46875 -0.113281 2.394531 -0.195312 2.34375 -0.3125 L 0.390625 -4.765625 C 0.359375 -4.867188 0.34375 -4.953125 0.34375 -5.015625 C 0.34375 -5.128906 0.382812 -5.226562 0.46875 -5.3125 C 0.5625 -5.40625 0.679688 -5.453125 0.828125 -5.453125 C 0.929688 -5.453125 1.023438 -5.425781 1.109375 -5.375 C 1.191406 -5.320312 1.253906 -5.242188 1.296875 -5.140625 L 2.859375 -1.53125 L 4.40625 -5.140625 C 4.507812 -5.347656 4.660156 -5.453125 4.859375 -5.453125 Z M 4.859375 -5.453125 "/></g></g></g><g fill="#000000" fill-opacity="1"><g transform="translate(137.803751, 212.619406)"><g><path d="M 2.203125 -4.4375 L 2.203125 -1.375 C 2.203125 -1.03125 2.351562 -0.859375 2.65625 -0.859375 C 2.707031 -0.859375 2.773438 -0.867188 2.859375 -0.890625 C 2.941406 -0.910156 3.003906 -0.921875 3.046875 -0.921875 C 3.140625 -0.921875 3.21875 -0.882812 3.28125 -0.8125 C 3.34375 -0.738281 3.375 -0.644531 3.375 -0.53125 C 3.375 -0.382812 3.289062 -0.257812 3.125 -0.15625 C 2.957031 -0.0507812 2.769531 0 2.5625 0 C 2.34375 0 2.132812 -0.0195312 1.9375 -0.0625 C 1.75 -0.113281 1.582031 -0.238281 1.4375 -0.4375 C 1.289062 -0.632812 1.21875 -0.929688 1.21875 -1.328125 L 1.21875 -4.4375 L 0.625 -4.4375 C 0.488281 -4.4375 0.378906 -4.476562 0.296875 -4.5625 C 0.210938 -4.65625 0.171875 -4.769531 0.171875 -4.90625 C 0.171875 -5.03125 0.210938 -5.132812 0.296875 -5.21875 C 0.378906 -5.300781 0.488281 -5.34375 0.625 -5.34375 L 1.21875 -5.34375 L 1.21875 -6.203125 C 1.21875 -6.347656 1.265625 -6.46875 1.359375 -6.5625 C 1.453125 -6.65625 1.570312 -6.703125 1.71875 -6.703125 C 1.851562 -6.703125 1.96875 -6.65625 2.0625 -6.5625 C 2.15625 -6.46875 2.203125 -6.347656 2.203125 -6.203125 L 2.203125 -5.34375 L 3.046875 -5.34375 C 3.179688 -5.34375 3.289062 -5.296875 3.375 -5.203125 C 3.457031 -5.117188 3.5 -5.015625 3.5 -4.890625 C 3.5 -4.753906 3.457031 -4.644531 3.375 -4.5625 C 3.289062 -4.476562 3.179688 -4.4375 3.046875 -4.4375 Z M 2.203125 -4.4375 "/></g></g></g><g fill="#000000" fill-opacity="1"><g transform="translate(148.43827, 212.619406)"><g><path d="M 5.46875 -2.90625 C 5.46875 -2.78125 5.414062 -2.675781 5.3125 -2.59375 C 5.21875 -2.507812 5.109375 -2.46875 4.984375 -2.46875 L 1.34375 -2.46875 C 1.394531 -1.96875 1.585938 -1.5625 1.921875 -1.25 C 2.253906 -0.945312 2.660156 -0.796875 3.140625 -0.796875 C 3.472656 -0.796875 3.742188 -0.84375 3.953125 -0.9375 C 4.160156 -1.039062 4.34375 -1.164062 4.5 -1.3125 C 4.601562 -1.375 4.703125 -1.40625 4.796875 -1.40625 C 4.910156 -1.40625 5.003906 -1.363281 5.078125 -1.28125 C 5.160156 -1.207031 5.203125 -1.113281 5.203125 -1 C 5.203125 -0.851562 5.132812 -0.722656 5 -0.609375 C 4.800781 -0.410156 4.535156 -0.238281 4.203125 -0.09375 C 3.878906 0.0390625 3.546875 0.109375 3.203125 0.109375 C 2.640625 0.109375 2.144531 -0.00390625 1.71875 -0.234375 C 1.300781 -0.472656 0.976562 -0.800781 0.75 -1.21875 C 0.519531 -1.644531 0.40625 -2.125 0.40625 -2.65625 C 0.40625 -3.226562 0.519531 -3.734375 0.75 -4.171875 C 0.988281 -4.609375 1.300781 -4.941406 1.6875 -5.171875 C 2.082031 -5.410156 2.503906 -5.53125 2.953125 -5.53125 C 3.390625 -5.53125 3.800781 -5.414062 4.1875 -5.1875 C 4.570312 -4.957031 4.878906 -4.644531 5.109375 -4.25 C 5.347656 -3.851562 5.46875 -3.40625 5.46875 -2.90625 Z M 2.953125 -4.625 C 2.566406 -4.625 2.234375 -4.515625 1.953125 -4.296875 C 1.671875 -4.078125 1.484375 -3.742188 1.390625 -3.296875 L 4.4375 -3.296875 L 4.4375 -3.375 C 4.40625 -3.738281 4.238281 -4.035156 3.9375 -4.265625 C 3.644531 -4.503906 3.316406 -4.625 2.953125 -4.625 Z M 2.953125 -4.625 "/></g></g></g><g fill="#000000" fill-opacity="1"><g transform="translate(161.029923, 212.619406)"><g/></g></g><g fill="#000000" fill-opacity="1"><g transform="translate(170.60346, 212.619406)"><g><path d="M 2.203125 -4.4375 L 2.203125 -1.375 C 2.203125 -1.03125 2.351562 -0.859375 2.65625 -0.859375 C 2.707031 -0.859375 2.773438 -0.867188 2.859375 -0.890625 C 2.941406 -0.910156 3.003906 -0.921875 3.046875 -0.921875 C 3.140625 -0.921875 3.21875 -0.882812 3.28125 -0.8125 C 3.34375 -0.738281 3.375 -0.644531 3.375 -0.53125 C 3.375 -0.382812 3.289062 -0.257812 3.125 -0.15625 C 2.957031 -0.0507812 2.769531 0 2.5625 0 C 2.34375 0 2.132812 -0.0195312 1.9375 -0.0625 C 1.75 -0.113281 1.582031 -0.238281 1.4375 -0.4375 C 1.289062 -0.632812 1.21875 -0.929688 1.21875 -1.328125 L 1.21875 -4.4375 L 0.625 -4.4375 C 0.488281 -4.4375 0.378906 -4.476562 0.296875 -4.5625 C 0.210938 -4.65625 0.171875 -4.769531 0.171875 -4.90625 C 0.171875 -5.03125 0.210938 -5.132812 0.296875 -5.21875 C 0.378906 -5.300781 0.488281 -5.34375 0.625 -5.34375 L 1.21875 -5.34375 L 1.21875 -6.203125 C 1.21875 -6.347656 1.265625 -6.46875 1.359375 -6.5625 C 1.453125 -6.65625 1.570312 -6.703125 1.71875 -6.703125 C 1.851562 -6.703125 1.96875 -6.65625 2.0625 -6.5625 C 2.15625 -6.46875 2.203125 -6.347656 2.203125 -6.203125 L 2.203125 -5.34375 L 3.046875 -5.34375 C 3.179688 -5.34375 3.289062 -5.296875 3.375 -5.203125 C 3.457031 -5.117188 3.5 -5.015625 3.5 -4.890625 C 3.5 -4.753906 3.457031 -4.644531 3.375 -4.5625 C 3.289062 -4.476562 3.179688 -4.4375 3.046875 -4.4375 Z M 2.203125 -4.4375 "/></g></g></g><g fill="#000000" fill-opacity="1"><g transform="translate(181.237985, 212.619406)"><g><path d="M 5.46875 -2.90625 C 5.46875 -2.78125 5.414062 -2.675781 5.3125 -2.59375 C 5.21875 -2.507812 5.109375 -2.46875 4.984375 -2.46875 L 1.34375 -2.46875 C 1.394531 -1.96875 1.585938 -1.5625 1.921875 -1.25 C 2.253906 -0.945312 2.660156 -0.796875 3.140625 -0.796875 C 3.472656 -0.796875 3.742188 -0.84375 3.953125 -0.9375 C 4.160156 -1.039062 4.34375 -1.164062 4.5 -1.3125 C 4.601562 -1.375 4.703125 -1.40625 4.796875 -1.40625 C 4.910156 -1.40625 5.003906 -1.363281 5.078125 -1.28125 C 5.160156 -1.207031 5.203125 -1.113281 5.203125 -1 C 5.203125 -0.851562 5.132812 -0.722656 5 -0.609375 C 4.800781 -0.410156 4.535156 -0.238281 4.203125 -0.09375 C 3.878906 0.0390625 3.546875 0.109375 3.203125 0.109375 C 2.640625 0.109375 2.144531 -0.00390625 1.71875 -0.234375 C 1.300781 -0.472656 0.976562 -0.800781 0.75 -1.21875 C 0.519531 -1.644531 0.40625 -2.125 0.40625 -2.65625 C 0.40625 -3.226562 0.519531 -3.734375 0.75 -4.171875 C 0.988281 -4.609375 1.300781 -4.941406 1.6875 -5.171875 C 2.082031 -5.410156 2.503906 -5.53125 2.953125 -5.53125 C 3.390625 -5.53125 3.800781 -5.414062 4.1875 -5.1875 C 4.570312 -4.957031 4.878906 -4.644531 5.109375 -4.25 C 5.347656 -3.851562 5.46875 -3.40625 5.46875 -2.90625 Z M 2.953125 -4.625 C 2.566406 -4.625 2.234375 -4.515625 1.953125 -4.296875 C 1.671875 -4.078125 1.484375 -3.742188 1.390625 -3.296875 L 4.4375 -3.296875 L 4.4375 -3.375 C 4.40625 -3.738281 4.238281 -4.035156 3.9375 -4.265625 C 3.644531 -4.503906 3.316406 -4.625 2.953125 -4.625 Z M 2.953125 -4.625 "/></g></g></g><g fill="#000000" fill-opacity="1"><g transform="translate(193.829643, 212.619406)"><g><path d="M 1.796875 -0.5 C 1.796875 -0.351562 1.742188 -0.234375 1.640625 -0.140625 C 1.546875 -0.046875 1.429688 0 1.296875 0 C 1.160156 0 1.046875 -0.046875 0.953125 -0.140625 C 0.859375 -0.234375 0.8125 -0.351562 0.8125 -0.5 L 0.8125 -7.140625 C 0.8125 -7.273438 0.859375 -7.390625 0.953125 -7.484375 C 1.054688 -7.578125 1.175781 -7.625 1.3125 -7.625 C 1.445312 -7.625 1.5625 -7.578125 1.65625 -7.484375 C 1.75 -7.390625 1.796875 -7.273438 1.796875 -7.140625 Z M 1.796875 -0.5 "/></g></g></g><g fill="#000000" fill-opacity="1"><g transform="translate(203.155971, 212.619406)"><g><path d="M 5.84375 -2.703125 C 5.84375 -2.160156 5.722656 -1.675781 5.484375 -1.25 C 5.242188 -0.832031 4.914062 -0.5 4.5 -0.25 C 4.082031 -0.0078125 3.625 0.109375 3.125 0.109375 C 2.625 0.109375 2.164062 -0.0078125 1.75 -0.25 C 1.332031 -0.5 1.003906 -0.832031 0.765625 -1.25 C 0.523438 -1.675781 0.40625 -2.160156 0.40625 -2.703125 C 0.40625 -3.234375 0.523438 -3.71875 0.765625 -4.15625 C 1.003906 -4.59375 1.332031 -4.929688 1.75 -5.171875 C 2.164062 -5.410156 2.625 -5.53125 3.125 -5.53125 C 3.625 -5.53125 4.082031 -5.410156 4.5 -5.171875 C 4.914062 -4.929688 5.242188 -4.59375 5.484375 -4.15625 C 5.722656 -3.71875 5.84375 -3.234375 5.84375 -2.703125 Z M 4.875 -2.703125 C 4.875 -3.078125 4.796875 -3.410156 4.640625 -3.703125 C 4.484375 -3.992188 4.269531 -4.21875 4 -4.375 C 3.738281 -4.539062 3.445312 -4.625 3.125 -4.625 C 2.800781 -4.625 2.503906 -4.539062 2.234375 -4.375 C 1.972656 -4.21875 1.765625 -3.992188 1.609375 -3.703125 C 1.453125 -3.410156 1.375 -3.078125 1.375 -2.703125 C 1.375 -2.335938 1.453125 -2.007812 1.609375 -1.71875 C 1.765625 -1.4375 1.972656 -1.210938 2.234375 -1.046875 C 2.503906 -0.878906 2.800781 -0.796875 3.125 -0.796875 C 3.445312 -0.796875 3.738281 -0.878906 4 -1.046875 C 4.269531 -1.210938 4.484375 -1.4375 4.640625 -1.71875 C 4.796875 -2.007812 4.875 -2.335938 4.875 -2.703125 Z M 4.875 -2.703125 "/></g></g></g><g fill="#000000" fill-opacity="1"><g transform="translate(216.118453, 212.619406)"><g/></g></g><g fill="#000000" fill-opacity="1"><g transform="translate(225.691996, 212.619406)"><g><path d="M 1.65625 -0.5 C 1.65625 -0.351562 1.609375 -0.234375 1.515625 -0.140625 C 1.421875 -0.046875 1.304688 0 1.171875 0 C 1.023438 0 0.90625 -0.046875 0.8125 -0.140625 C 0.726562 -0.234375 0.6875 -0.351562 0.6875 -0.5 L 0.6875 -4.953125 C 0.6875 -5.097656 0.726562 -5.21875 0.8125 -5.3125 C 0.90625 -5.40625 1.023438 -5.453125 1.171875 -5.453125 C 1.304688 -5.453125 1.421875 -5.40625 1.515625 -5.3125 C 1.609375 -5.21875 1.65625 -5.097656 1.65625 -4.953125 Z M 1.15625 -6.140625 C 0.957031 -6.140625 0.816406 -6.175781 0.734375 -6.25 C 0.648438 -6.320312 0.609375 -6.4375 0.609375 -6.59375 L 0.609375 -6.75 C 0.609375 -6.914062 0.65625 -7.03125 0.75 -7.09375 C 0.84375 -7.164062 0.984375 -7.203125 1.171875 -7.203125 C 1.359375 -7.203125 1.492188 -7.164062 1.578125 -7.09375 C 1.671875 -7.019531 1.71875 -6.90625 1.71875 -6.75 L 1.71875 -6.59375 C 1.71875 -6.425781 1.671875 -6.304688 1.578125 -6.234375 C 1.492188 -6.171875 1.351562 -6.140625 1.15625 -6.140625 Z M 1.15625 -6.140625 "/></g></g></g><g fill="#000000" fill-opacity="1"><g transform="translate(234.750497, 212.619406)"><g/></g></g><g fill="#000000" fill-opacity="1"><g transform="translate(244.32404, 212.619406)"><g><path d="M 6.9375 -5.5 C 8.132812 -5.5 8.734375 -4.75 8.734375 -3.25 L 8.734375 -0.5 C 8.734375 -0.351562 8.6875 -0.234375 8.59375 -0.140625 C 8.507812 -0.046875 8.394531 0 8.25 0 C 8.101562 0 7.984375 -0.046875 7.890625 -0.140625 C 7.796875 -0.234375 7.75 -0.351562 7.75 -0.5 L 7.75 -3.234375 C 7.75 -4.140625 7.375 -4.59375 6.625 -4.59375 C 6.351562 -4.59375 6.109375 -4.53125 5.890625 -4.40625 C 5.671875 -4.289062 5.5 -4.128906 5.375 -3.921875 C 5.257812 -3.710938 5.203125 -3.484375 5.203125 -3.234375 L 5.203125 -0.5 C 5.203125 -0.351562 5.15625 -0.234375 5.0625 -0.140625 C 4.96875 -0.046875 4.851562 0 4.71875 0 C 4.570312 0 4.453125 -0.046875 4.359375 -0.140625 C 4.273438 -0.234375 4.234375 -0.351562 4.234375 -0.5 L 4.234375 -3.25 C 4.234375 -3.65625 4.144531 -3.976562 3.96875 -4.21875 C 3.800781 -4.46875 3.515625 -4.59375 3.109375 -4.59375 C 2.703125 -4.59375 2.367188 -4.460938 2.109375 -4.203125 C 1.847656 -3.941406 1.71875 -3.625 1.71875 -3.25 L 1.71875 -0.5 C 1.71875 -0.351562 1.671875 -0.234375 1.578125 -0.140625 C 1.484375 -0.046875 1.363281 0 1.21875 0 C 1.070312 0 0.953125 -0.046875 0.859375 -0.140625 C 0.773438 -0.234375 0.734375 -0.351562 0.734375 -0.5 L 0.734375 -4.90625 C 0.734375 -5.039062 0.78125 -5.15625 0.875 -5.25 C 0.96875 -5.351562 1.082031 -5.40625 1.21875 -5.40625 C 1.363281 -5.40625 1.484375 -5.351562 1.578125 -5.25 C 1.671875 -5.15625 1.71875 -5.039062 1.71875 -4.90625 L 1.71875 -4.546875 C 1.894531 -4.816406 2.128906 -5.039062 2.421875 -5.21875 C 2.722656 -5.40625 3.050781 -5.5 3.40625 -5.5 C 4.257812 -5.5 4.8125 -5.117188 5.0625 -4.359375 C 5.21875 -4.648438 5.46875 -4.910156 5.8125 -5.140625 C 6.164062 -5.378906 6.539062 -5.5 6.9375 -5.5 Z M 6.9375 -5.5 "/></g></g></g><g fill="#000000" fill-opacity="1"><g transform="translate(260.500354, 212.619406)"><g><path d="M 4.75 -5.453125 C 4.894531 -5.453125 5.015625 -5.40625 5.109375 -5.3125 C 5.203125 -5.21875 5.25 -5.097656 5.25 -4.953125 L 5.25 -0.5 C 5.25 0.351562 5.007812 0.992188 4.53125 1.421875 C 4.0625 1.847656 3.4375 2.0625 2.65625 2.0625 C 2.40625 2.0625 2.15625 2.035156 1.90625 1.984375 C 1.65625 1.941406 1.453125 1.878906 1.296875 1.796875 C 1.046875 1.679688 0.921875 1.519531 0.921875 1.3125 C 0.921875 1.28125 0.925781 1.238281 0.9375 1.1875 C 0.976562 1.070312 1.035156 0.984375 1.109375 0.921875 C 1.191406 0.859375 1.28125 0.828125 1.375 0.828125 C 1.425781 0.828125 1.476562 0.835938 1.53125 0.859375 C 1.738281 0.953125 1.925781 1.023438 2.09375 1.078125 C 2.257812 1.140625 2.453125 1.171875 2.671875 1.171875 C 3.734375 1.171875 4.265625 0.625 4.265625 -0.46875 L 4.265625 -0.6875 C 4.078125 -0.4375 3.835938 -0.238281 3.546875 -0.09375 C 3.253906 0.0390625 2.921875 0.109375 2.546875 0.109375 C 1.972656 0.109375 1.523438 -0.0703125 1.203125 -0.4375 C 0.890625 -0.800781 0.734375 -1.28125 0.734375 -1.875 L 0.734375 -4.953125 C 0.734375 -5.097656 0.773438 -5.21875 0.859375 -5.3125 C 0.953125 -5.40625 1.070312 -5.453125 1.21875 -5.453125 C 1.363281 -5.453125 1.484375 -5.40625 1.578125 -5.3125 C 1.671875 -5.21875 1.71875 -5.097656 1.71875 -4.953125 L 1.71875 -2.140625 C 1.71875 -1.679688 1.816406 -1.34375 2.015625 -1.125 C 2.210938 -0.90625 2.515625 -0.796875 2.921875 -0.796875 C 3.304688 -0.796875 3.625 -0.921875 3.875 -1.171875 C 4.132812 -1.421875 4.265625 -1.742188 4.265625 -2.140625 L 4.265625 -4.953125 C 4.265625 -5.097656 4.304688 -5.21875 4.390625 -5.3125 C 4.484375 -5.40625 4.601562 -5.453125 4.75 -5.453125 Z M 4.75 -5.453125 "/></g></g></g><g fill="#000000" fill-opacity="1"><g transform="translate(273.18471, 212.619406)"><g><path d="M 0.421875 -0.84375 C 0.359375 -0.9375 0.328125 -1.03125 0.328125 -1.125 C 0.328125 -1.257812 0.398438 -1.375 0.546875 -1.46875 C 0.617188 -1.519531 0.695312 -1.546875 0.78125 -1.546875 C 0.90625 -1.546875 1.019531 -1.492188 1.125 -1.390625 C 1.332031 -1.160156 1.550781 -0.984375 1.78125 -0.859375 C 2.019531 -0.742188 2.304688 -0.6875 2.640625 -0.6875 C 2.898438 -0.695312 3.128906 -0.757812 3.328125 -0.875 C 3.523438 -0.988281 3.625 -1.171875 3.625 -1.421875 C 3.625 -1.660156 3.519531 -1.835938 3.3125 -1.953125 C 3.113281 -2.078125 2.820312 -2.191406 2.4375 -2.296875 C 2.050781 -2.398438 1.726562 -2.507812 1.46875 -2.625 C 1.21875 -2.738281 1.003906 -2.898438 0.828125 -3.109375 C 0.648438 -3.328125 0.5625 -3.613281 0.5625 -3.96875 C 0.5625 -4.28125 0.648438 -4.550781 0.828125 -4.78125 C 1.003906 -5.019531 1.238281 -5.203125 1.53125 -5.328125 C 1.820312 -5.460938 2.140625 -5.53125 2.484375 -5.53125 C 2.816406 -5.53125 3.144531 -5.46875 3.46875 -5.34375 C 3.789062 -5.21875 4.054688 -5.03125 4.265625 -4.78125 C 4.347656 -4.675781 4.390625 -4.570312 4.390625 -4.46875 C 4.390625 -4.363281 4.335938 -4.257812 4.234375 -4.15625 C 4.160156 -4.09375 4.070312 -4.0625 3.96875 -4.0625 C 3.84375 -4.0625 3.742188 -4.101562 3.671875 -4.1875 C 3.523438 -4.351562 3.347656 -4.476562 3.140625 -4.5625 C 2.929688 -4.65625 2.695312 -4.703125 2.4375 -4.703125 C 2.175781 -4.703125 1.953125 -4.648438 1.765625 -4.546875 C 1.585938 -4.441406 1.5 -4.257812 1.5 -4 C 1.507812 -3.757812 1.613281 -3.582031 1.8125 -3.46875 C 2.019531 -3.351562 2.332031 -3.238281 2.75 -3.125 C 3.113281 -3.03125 3.414062 -2.925781 3.65625 -2.8125 C 3.894531 -2.707031 4.097656 -2.546875 4.265625 -2.328125 C 4.429688 -2.109375 4.515625 -1.820312 4.515625 -1.46875 C 4.515625 -1.144531 4.421875 -0.863281 4.234375 -0.625 C 4.046875 -0.394531 3.800781 -0.210938 3.5 -0.078125 C 3.207031 0.046875 2.894531 0.109375 2.5625 0.109375 C 2.125 0.109375 1.71875 0.0351562 1.34375 -0.109375 C 0.976562 -0.265625 0.671875 -0.507812 0.421875 -0.84375 Z M 0.421875 -0.84375 "/></g></g></g><g fill="#000000" fill-opacity="1"><g transform="translate(284.818407, 212.619406)"><g><path d="M 5.46875 -2.90625 C 5.46875 -2.78125 5.414062 -2.675781 5.3125 -2.59375 C 5.21875 -2.507812 5.109375 -2.46875 4.984375 -2.46875 L 1.34375 -2.46875 C 1.394531 -1.96875 1.585938 -1.5625 1.921875 -1.25 C 2.253906 -0.945312 2.660156 -0.796875 3.140625 -0.796875 C 3.472656 -0.796875 3.742188 -0.84375 3.953125 -0.9375 C 4.160156 -1.039062 4.34375 -1.164062 4.5 -1.3125 C 4.601562 -1.375 4.703125 -1.40625 4.796875 -1.40625 C 4.910156 -1.40625 5.003906 -1.363281 5.078125 -1.28125 C 5.160156 -1.207031 5.203125 -1.113281 5.203125 -1 C 5.203125 -0.851562 5.132812 -0.722656 5 -0.609375 C 4.800781 -0.410156 4.535156 -0.238281 4.203125 -0.09375 C 3.878906 0.0390625 3.546875 0.109375 3.203125 0.109375 C 2.640625 0.109375 2.144531 -0.00390625 1.71875 -0.234375 C 1.300781 -0.472656 0.976562 -0.800781 0.75 -1.21875 C 0.519531 -1.644531 0.40625 -2.125 0.40625 -2.65625 C 0.40625 -3.226562 0.519531 -3.734375 0.75 -4.171875 C 0.988281 -4.609375 1.300781 -4.941406 1.6875 -5.171875 C 2.082031 -5.410156 2.503906 -5.53125 2.953125 -5.53125 C 3.390625 -5.53125 3.800781 -5.414062 4.1875 -5.1875 C 4.570312 -4.957031 4.878906 -4.644531 5.109375 -4.25 C 5.347656 -3.851562 5.46875 -3.40625 5.46875 -2.90625 Z M 2.953125 -4.625 C 2.566406 -4.625 2.234375 -4.515625 1.953125 -4.296875 C 1.671875 -4.078125 1.484375 -3.742188 1.390625 -3.296875 L 4.4375 -3.296875 L 4.4375 -3.375 C 4.40625 -3.738281 4.238281 -4.035156 3.9375 -4.265625 C 3.644531 -4.503906 3.316406 -4.625 2.953125 -4.625 Z M 2.953125 -4.625 "/></g></g></g><g fill="#000000" fill-opacity="1"><g transform="translate(297.410065, 212.619406)"><g><path d="M 1.78125 -0.5 C 1.78125 -0.351562 1.734375 -0.234375 1.640625 -0.140625 C 1.546875 -0.046875 1.425781 0 1.28125 0 C 1.144531 0 1.03125 -0.046875 0.9375 -0.140625 C 0.84375 -0.234375 0.796875 -0.351562 0.796875 -0.5 L 0.796875 -7.140625 C 0.796875 -7.273438 0.84375 -7.390625 0.9375 -7.484375 C 1.03125 -7.578125 1.148438 -7.625 1.296875 -7.625 C 1.429688 -7.625 1.546875 -7.578125 1.640625 -7.484375 C 1.734375 -7.390625 1.78125 -7.273438 1.78125 -7.140625 Z M 4.015625 -6.078125 C 4.015625 -5.910156 3.957031 -5.710938 3.84375 -5.484375 C 3.738281 -5.265625 3.597656 -5.078125 3.421875 -4.921875 C 3.253906 -4.765625 3.082031 -4.6875 2.90625 -4.6875 C 2.789062 -4.6875 2.691406 -4.710938 2.609375 -4.765625 C 2.535156 -4.828125 2.5 -4.910156 2.5 -5.015625 C 2.5 -5.117188 2.523438 -5.1875 2.578125 -5.21875 C 2.628906 -5.257812 2.6875 -5.289062 2.75 -5.3125 C 2.8125 -5.332031 2.859375 -5.347656 2.890625 -5.359375 C 2.992188 -5.410156 3.070312 -5.472656 3.125 -5.546875 C 3.175781 -5.628906 3.203125 -5.71875 3.203125 -5.8125 C 3.203125 -5.894531 3.171875 -5.960938 3.109375 -6.015625 C 3.046875 -6.066406 2.960938 -6.09375 2.859375 -6.09375 C 2.753906 -6.09375 2.664062 -6.066406 2.59375 -6.015625 C 2.519531 -6.046875 2.460938 -6.085938 2.421875 -6.140625 C 2.390625 -6.191406 2.375 -6.265625 2.375 -6.359375 C 2.382812 -6.515625 2.472656 -6.65625 2.640625 -6.78125 C 2.816406 -6.914062 3.003906 -6.984375 3.203125 -6.984375 C 3.453125 -6.984375 3.648438 -6.898438 3.796875 -6.734375 C 3.941406 -6.578125 4.015625 -6.359375 4.015625 -6.078125 Z M 4.015625 -6.078125 "/></g></g></g></svg>