<svg xmlns="http://www.w3.org/2000/svg" xmlns:xlink="http://www.w3.org/1999/xlink" width="500" zoomAndPan="magnify" viewBox="0 0 375 374.999991" height="500" preserveAspectRatio="xMidYMid meet" version="1.0"><defs><clipPath id="fb7f39ae97"><path d="M 75.65625 139 L 127 139 L 127 170 L 75.65625 170 Z M 75.65625 139 " clip-rule="nonzero"/></clipPath><clipPath id="4e5a5e8620"><path d="M 258 107 L 299.15625 107 L 299.15625 148 L 258 148 Z M 258 107 " clip-rule="nonzero"/></clipPath><clipPath id="274ca3123d"><path d="M 168 73.664062 L 200 73.664062 L 200 126 L 168 126 Z M 168 73.664062 " clip-rule="nonzero"/></clipPath><clipPath id="5730c84b44"><path d="M 116 134 L 230 134 L 230 301.664062 L 116 301.664062 Z M 116 134 " clip-rule="nonzero"/></clipPath></defs><g clip-path="url(#fb7f39ae97)"><path fill="#80cc28" d="M 75.664062 147.847656 C 75.664062 147.847656 116.773438 123.960938 126.867188 154.96875 C 114.722656 151.09375 101.175781 151.839844 101.175781 151.839844 C 101.175781 151.839844 112.070312 154.742188 125.507812 161.585938 C 111.429688 177.621094 97.605469 164.453125 87.539062 155.046875 C 82.230469 150.089844 75.664062 147.847656 75.664062 147.847656 " fill-opacity="1" fill-rule="nonzero"/></g><g clip-path="url(#4e5a5e8620)"><path fill="#80cc28" d="M 299.164062 107.628906 C 299.164062 107.628906 251.695312 109.761719 259.894531 141.324219 C 268.03125 131.488281 279.839844 124.792969 279.839844 124.792969 C 279.839844 124.792969 272.226562 133.125 264.601562 146.15625 C 285.085938 152.039062 289.632812 133.476562 293.046875 120.113281 C 294.84375 113.070312 299.164062 107.628906 299.164062 107.628906 " fill-opacity="1" fill-rule="nonzero"/></g><g clip-path="url(#274ca3123d)"><path fill="#80cc28" d="M 174.601562 73.664062 C 174.601562 73.664062 154.8125 116.828125 185.925781 125.160156 C 182.496094 111.148438 181.480469 97.183594 181.480469 97.183594 C 181.480469 97.183594 188.144531 109.488281 192.800781 123.140625 C 214.503906 99.292969 174.601562 73.664062 174.601562 73.664062 " fill-opacity="1" fill-rule="nonzero"/></g><g clip-path="url(#5730c84b44)"><path fill="#80cc28" d="M 195.707031 151.125 C 205.238281 150.800781 213.253906 159.117188 213.613281 169.699219 C 213.972656 180.28125 206.535156 189.121094 197.003906 189.445312 C 187.472656 189.769531 179.457031 181.453125 179.097656 170.871094 C 178.742188 160.289062 186.175781 151.449219 195.707031 151.125 Z M 156.824219 301.664062 C 215.394531 222.371094 144.292969 158.265625 144.292969 158.265625 C 189.980469 177.375 189.023438 217.582031 202.585938 215.699219 C 212.402344 214.335938 216.390625 180.5 223.449219 154.660156 C 224.84375 149.5625 226.871094 145.113281 229.234375 141.25 C 219.210938 136.699219 208.078125 134.164062 196.355469 134.164062 C 152.289062 134.164062 116.566406 169.96875 116.566406 214.140625 C 116.566406 245.566406 134.652344 272.757812 160.960938 285.832031 C 160.164062 290.246094 158.800781 296.574219 156.824219 301.664062 " fill-opacity="1" fill-rule="nonzero"/></g><path fill="#27963c" d="M 248.382812 153.503906 C 248.417969 147.460938 249.132812 130.285156 255.664062 118.953125 C 214.261719 154.6875 262.523438 243.640625 177.488281 291.859375 C 183.539062 293.332031 189.855469 294.113281 196.355469 294.113281 C 240.421875 294.113281 276.144531 258.308594 276.144531 214.140625 C 276.144531 189.894531 265.382812 168.167969 248.382812 153.503906 " fill-opacity="1" fill-rule="nonzero"/></svg>